name 900006_30.mot
datacolumns 153
datarows 4
range 1.10000002 1.12500000
endheader

                time	           pelvis_tx	           pelvis_ty	           pelvis_tz	         pelvis_tilt	         pelvis_list	     pelvis_rotation	       hip_flexion_r	     hip_adduction_r	      hip_rotation_r	        knee_angle_r	       ankle_angle_r	    subtalar_angle_r	         mtp_angle_r	       hip_flexion_l	     hip_adduction_l	      hip_rotation_l	        knee_angle_l	       ankle_angle_l	    subtalar_angle_l	         mtp_angle_l	    lumbar_extension	      lumbar_bending	     lumbar_rotation	     ground_force_vx	     ground_force_vy	     ground_force_vz	     ground_force_px	     ground_force_py	     ground_force_pz	     ground_force_vx	     ground_force_vy	     ground_force_vz	     ground_force_px	     ground_force_py	     ground_force_pz	     ground_torque_x	     ground_torque_y	     ground_torque_z	     ground_torque_x	     ground_torque_y	     ground_torque_z	    ground_marker_px	    ground_marker_py	    ground_marker_pz	    ground_marker_px	    ground_marker_py	    ground_marker_pz	    ground_marker_px	    ground_marker_py	    ground_marker_pz	    ground_marker_px	    ground_marker_py	    ground_marker_pz	    ground_marker_px	    ground_marker_py	    ground_marker_pz	    ground_marker_px	    ground_marker_py	    ground_marker_pz	    ground_marker_px	    ground_marker_py	    ground_marker_pz	    ground_marker_px	    ground_marker_py	    ground_marker_pz	    ground_marker_px	    ground_marker_py	    ground_marker_pz	    ground_marker_px	    ground_marker_py	    ground_marker_pz	    ground_marker_px	    ground_marker_py	    ground_marker_pz	    ground_marker_px	    ground_marker_py	    ground_marker_pz	    ground_marker_px	    ground_marker_py	    ground_marker_pz	    ground_marker_px	    ground_marker_py	    ground_marker_pz	    ground_marker_px	    ground_marker_py	    ground_marker_pz	    ground_marker_px	    ground_marker_py	    ground_marker_pz	    ground_marker_px	    ground_marker_py	    ground_marker_pz	    ground_marker_px	    ground_marker_py	    ground_marker_pz	    ground_marker_px	    ground_marker_py	    ground_marker_pz	    ground_marker_px	    ground_marker_py	    ground_marker_pz	    ground_marker_px	    ground_marker_py	    ground_marker_pz	    ground_marker_px	    ground_marker_py	    ground_marker_pz	    ground_marker_px	    ground_marker_py	    ground_marker_pz	    ground_marker_px	    ground_marker_py	    ground_marker_pz	    ground_marker_px	    ground_marker_py	    ground_marker_pz	    ground_marker_px	    ground_marker_py	    ground_marker_pz	    ground_marker_px	    ground_marker_py	    ground_marker_pz	    ground_marker_px	    ground_marker_py	    ground_marker_pz	    ground_marker_px	    ground_marker_py	    ground_marker_pz	    ground_marker_px	    ground_marker_py	    ground_marker_pz	    ground_marker_px	    ground_marker_py	    ground_marker_pz	    ground_marker_px	    ground_marker_py	    ground_marker_pz	    ground_marker_px	    ground_marker_py	    ground_marker_pz	    ground_marker_px	    ground_marker_py	    ground_marker_pz	    ground_marker_px	    ground_marker_py	    ground_marker_pz	    ground_marker_px	    ground_marker_py	    ground_marker_pz	    ground_marker_px	    ground_marker_py	    ground_marker_pz	
          1.10000002	          1.32371497	          0.83472049	         -0.22150099	          3.80420208	         -3.82355094	          1.47808337	         12.70022011	          3.44175839	         -1.28127837	        -17.37779617	          1.38125086	          0.00000000	          0.00000000	         -5.63548660	         -4.15777636	         -3.16436553	        -49.44972610	         -7.37859154	          0.00000000	          0.00000000	        -11.14556122	          6.85863686	         -1.13526726	        -33.93889792	        385.88015170	        -27.16648398	          1.37182849	          0.00000000	         -0.14766687	          0.00000000	          0.00000000	          0.00000000	          0.89118842	          0.00000000	         -0.24339037	          0.00000000	         -0.49639050	          0.00000000	          0.00000000	          0.00000000	          0.00000000	          1.29054189	          0.76149082	         -0.22381160	          1.28468156	          0.76169389	         -0.16668417	          1.29640234	          0.76128775	         -0.28093904	          1.31948376	          0.41777536	         -0.15001725	          1.22693944	          0.40308830	         -0.28552711	          1.34563470	          0.06449372	         -0.15710215	          0.95999241	          0.17030989	         -0.28184772	          1.32371497	          0.83472049	         -0.22150099	          1.32758915	          0.84161001	         -0.11120473	          1.31984091	          0.82783097	         -0.33179724	          1.14679301	          0.86264592	         -0.18325508	          1.14820659	          0.85911143	         -0.23669189	          1.35401428	          0.42274377	         -0.09106831	          1.23209536	          0.39177477	         -0.34274819	          1.32495391	          0.41881618	         -0.20822051	          1.26285934	          0.39263922	         -0.21617398	          1.34049404	          0.06359838	         -0.11996697	          0.95491046	          0.17585766	         -0.31756389	          1.34628868	          0.06100805	         -0.19058001	          0.95596391	          0.17792456	         -0.24830385	          1.20235813	          1.25903761	         -0.20254686	          1.30387259	          1.17899358	         -0.15620089	          1.30379343	          1.18467999	         -0.26135913	          1.30098295	          1.18198097	         -0.21185249	          1.30059040	          1.08010972	         -0.21988031	          1.43968177	          0.58126783	         -0.12955794	          1.35877371	          0.53794247	         -0.36238000	          1.38377833	          0.60782981	         -0.08698960	          1.34680104	          0.58257478	         -0.29570824	          1.38325989	          0.55049765	         -0.09213091	          1.33710921	          0.52579814	         -0.28632981	          1.46539164	          0.18580569	         -0.13025054	          1.03285539	          0.24319325	         -0.40780228	          1.38823462	          0.16838834	         -0.14610481	          1.02448654	          0.24001792	         -0.32958388	          1.42854834	          0.04813602	         -0.14616555	          0.98914337	          0.08388874	         -0.26942712	
          1.10833335	          1.33448267	          0.83570886	         -0.22107491	          3.60957813	         -3.62377882	          1.53395891	         11.83528709	          3.26873422	         -1.48866415	        -16.94722939	          1.74994195	          0.00000000	          0.00000000	         -3.52327633	         -4.06137705	         -3.08591604	        -51.38249207	         -5.83136606	          0.00000000	          0.00000000	        -11.30995560	          6.66147089	         -0.97723025	        -32.48347980	        380.78217029	        -28.15441595	          1.37832446	          0.00000000	         -0.14742810	          0.00000000	          0.00000000	          0.00000000	          0.89266431	          0.00000000	         -0.24323172	          0.00000000	         -0.35106189	          0.00000000	          0.00000000	          0.00000000	          0.00000000	          1.30101061	          0.76254261	         -0.22367570	          1.29518533	          0.76258397	         -0.16654430	          1.30683601	          0.76250130	         -0.28080708	          1.32678974	          0.41651967	         -0.14981861	          1.24843228	          0.40392625	         -0.28643662	          1.34595621	          0.06459608	         -0.15724641	          0.98262262	          0.17147416	         -0.28143856	          1.33448267	          0.83570886	         -0.22107491	          1.33844054	          0.84220493	         -0.11048137	          1.33052492	          0.82921284	         -0.33166847	          1.15784526	          0.86420542	         -0.18264313	          1.15911162	          0.86062956	         -0.23611854	          1.35791564	          0.42261416	         -0.09080353	          1.25436449	          0.39272156	         -0.34372342	          1.33339667	          0.41766089	         -0.20862803	          1.28390872	          0.39349741	         -0.21895425	          1.34069610	          0.06371798	         -0.12012756	          0.97743732	          0.17692575	         -0.31715471	          1.34681749	          0.06097418	         -0.19070196	          0.97925717	          0.17915286	         -0.24793150	          1.21521747	          1.26101696	         -0.20221555	          1.31638086	          1.18035102	         -0.15618840	          1.31597352	          1.18608546	         -0.26137456	          1.31331742	          1.18338108	         -0.21184407	          1.31227815	          1.08151770	         -0.21991280	          1.44639611	          0.57956731	         -0.12873296	          1.37632489	          0.54219234	         -0.36322954	          1.38946366	          0.60686427	         -0.08655100	          1.36279297	          0.58622986	         -0.29657221	          1.38937199	          0.54972899	         -0.09171297	          1.35471904	          0.52938104	         -0.28770798	          1.46686184	          0.18460310	         -0.12992658	          1.05529249	          0.24414732	         -0.40778312	          1.38968468	          0.16791676	         -0.14610524	          1.04749036	          0.24093452	         -0.32990387	          1.42871010	          0.04787931	         -0.14611065	          1.01383686	          0.08633461	         -0.26994085	
          1.11666667	          1.34519577	          0.83661312	         -0.22069517	          3.43059635	         -3.42495966	          1.57827091	         10.91823196	          3.10646510	         -1.57640958	        -16.44161606	          2.12033153	          0.00000000	          0.00000000	         -1.47235775	         -3.97179389	         -2.84764099	        -52.99605942	         -4.14214897	          0.00000000	          0.00000000	        -11.43709469	          6.53061819	         -1.11326838	        -31.27667647	        377.26754406	        -28.17998365	          1.38510120	          0.00000000	         -0.14746384	          0.00000000	          0.00000000	          0.00000000	          0.89418298	          0.00000000	         -0.24311334	          0.00000000	         -0.20962195	          0.00000000	          0.00000000	          0.00000000	          0.00000000	          1.31148720	          0.76351655	         -0.22359549	          1.30567920	          0.76339799	         -0.16646245	          1.31729531	          0.76363504	         -0.28072852	          1.33189976	          0.41628799	         -0.14970870	          1.26980662	          0.40512407	         -0.28739709	          1.34624696	          0.06470740	         -0.15742023	          1.00612497	          0.17164750	         -0.28076413	          1.34519577	          0.83661312	         -0.22069517	          1.34921241	          0.84272122	         -0.10977389	          1.34117901	          0.83050501	         -0.33161646	          1.16872644	          0.86563122	         -0.18217798	          1.17004967	          0.86201137	         -0.23555893	          1.36166048	          0.42247215	         -0.09062654	          1.27654254	          0.39402527	         -0.34482184	          1.33927393	          0.41749513	         -0.20913604	          1.30387509	          0.39475489	         -0.22168113	          1.34090316	          0.06384967	         -0.12031284	          1.00075221	          0.17698771	         -0.31646937	          1.34738970	          0.06084089	         -0.19084069	          1.00330544	          0.17960738	         -0.24730466	          1.22762358	          1.26297212	         -0.20183545	          1.32851255	          1.18153048	         -0.15607350	          1.32833827	          1.18739033	         -0.26180482	          1.32557249	          1.18464172	         -0.21200706	          1.32399011	          1.08279276	         -0.22016881	          1.45288217	          0.57785034	         -0.12823996	          1.39390516	          0.54660934	         -0.36378548	          1.39567268	          0.60618860	         -0.08635239	          1.37849128	          0.59007728	         -0.29710829	          1.39521313	          0.54897344	         -0.09159459	          1.37182426	          0.53290659	         -0.28870338	          1.46823990	          0.18347470	         -0.12976190	          1.07806373	          0.24453136	         -0.40762466	          1.39107656	          0.16745315	         -0.14628121	          1.07085288	          0.24148075	         -0.33006868	          1.42889452	          0.04768207	         -0.14610927	          1.04000783	          0.08801741	         -0.27056938	
          1.12500000	          1.35585940	          0.83746743	         -0.22032548	          3.25841522	         -3.21432662	          1.60842633	          9.96418953	          2.94545102	         -1.56242049	        -15.87250900	          2.48959923	          0.00000000	          0.00000000	          0.51510811	         -3.87858534	         -2.49252176	        -54.27400208	         -2.38000131	          0.00000000	          0.00000000	        -11.48475647	          6.46656227	         -1.10775578	        -30.22100874	        375.29159949	        -27.50142968	          1.39200183	          0.00000000	         -0.14774164	          0.00000000	          0.00000000	          0.00000000	          0.89591144	          0.00000000	         -0.24300256	          0.00000000	         -0.07166931	          0.00000000	          0.00000000	          0.00000000	          0.00000000	          1.32193100	          0.76445997	         -0.22353514	          1.31611967	          0.76417255	         -0.16640303	          1.32774234	          0.76474744	         -0.28066725	          1.33510327	          0.41694987	         -0.14965996	          1.28990400	          0.40716201	         -0.28833294	          1.34651577	          0.06482382	         -0.15762883	          1.03048313	          0.17081647	         -0.27987212	          1.35585940	          0.83746743	         -0.22032548	          1.35990107	          0.84316671	         -0.10908380	          1.35181773	          0.83176821	         -0.33156717	          1.17946923	          0.86697364	         -0.18180476	          1.18096876	          0.86332774	         -0.23505159	          1.36526322	          0.42232305	         -0.09053796	          1.29851043	          0.39564496	         -0.34602126	          1.34277201	          0.41738889	         -0.20822217	          1.32122433	          0.39678887	         -0.22420035	          1.34112310	          0.06398850	         -0.12052800	          1.02483594	          0.17604175	         -0.31555203	          1.34737885	          0.06113259	         -0.19105980	          1.02771938	          0.17814291	         -0.24639346	          1.23974752	          1.26459026	         -0.20141797	          1.34057784	          1.18248224	         -0.15654756	          1.34040892	          1.18860805	         -0.26211607	          1.33764064	          1.18574536	         -0.21239875	          1.33566356	          1.08392477	         -0.22082387	          1.45918477	          0.57610387	         -0.12801696	          1.41145039	          0.55116689	         -0.36413094	          1.40265882	          0.60585904	         -0.08664604	          1.39394045	          0.59416771	         -0.29731959	          1.40104842	          0.54849684	         -0.09148501	          1.38801312	          0.53598946	         -0.28919104	          1.46953285	          0.18240327	         -0.12975951	          1.10108840	          0.24433900	         -0.40733135	          1.39215422	          0.16702749	         -0.14611314	          1.09476233	          0.24114841	         -0.32886541	          1.42910039	          0.04753255	         -0.14619225	          1.06750619	          0.08895053	         -0.27130288	
